<svg width="18" height="12" viewBox="0 0 18 12" fill="none" xmlns="http://www.w3.org/2000/svg">
<path fill-rule="evenodd" clip-rule="evenodd" d="M16.7207 0.666748H15.7207C15.1684 0.666748 14.7207 1.11446 14.7207 1.66675V10.3334C14.7207 10.8857 15.1684 11.3334 15.7207 11.3334H16.7207C17.273 11.3334 17.7207 10.8857 17.7207 10.3334V1.66675C17.7207 1.11446 17.273 0.666748 16.7207 0.666748ZM11.054 3.00008H12.054C12.6063 3.00008 13.054 3.4478 13.054 4.00008V10.3334C13.054 10.8857 12.6063 11.3334 12.054 11.3334H11.054C10.5018 11.3334 10.054 10.8857 10.054 10.3334V4.00008C10.054 3.4478 10.5018 3.00008 11.054 3.00008ZM7.38737 5.33341H6.38737C5.83508 5.33341 5.38737 5.78113 5.38737 6.33341V10.3334C5.38737 10.8857 5.83508 11.3334 6.38737 11.3334H7.38737C7.93965 11.3334 8.38737 10.8857 8.38737 10.3334V6.33341C8.38737 5.78113 7.93965 5.33341 7.38737 5.33341ZM2.7207 7.33341H1.7207C1.16842 7.33341 0.720703 7.78113 0.720703 8.33341V10.3334C0.720703 10.8857 1.16842 11.3334 1.7207 11.3334H2.7207C3.27299 11.3334 3.7207 10.8857 3.7207 10.3334V8.33341C3.7207 7.78113 3.27299 7.33341 2.7207 7.33341Z" fill="white"/>
</svg>
