<svg width="11" height="13" viewBox="0 0 11 13" fill="none" xmlns="http://www.w3.org/2000/svg">
<path d="M6.88847 2.35441C7.185 2.04152 7.40383 1.69882 7.54504 1.32616C7.68152 0.953513 7.74977 0.615772 7.74977 0.312558C7.74977 0.292825 7.74858 0.267702 7.74623 0.238023C7.74375 0.208345 7.7427 0.18365 7.7427 0.163488C7.738 0.148581 7.73213 0.121248 7.72506 0.0813535C7.71801 0.0417519 7.71213 0.0144187 7.70741 -0.000488281C6.87907 0.203225 6.29086 0.570916 5.94261 1.10256C5.58962 1.63905 5.40606 2.27753 5.39194 3.01785C5.70714 2.9879 5.95186 2.94595 6.12616 2.89128C6.3803 2.80159 6.63432 2.62285 6.88847 2.35441Z" fill="white"/>
<path d="M9.28847 8.11539C8.96372 7.62377 8.80135 7.06976 8.80135 6.45338C8.80135 5.89204 8.95417 5.37792 9.26021 4.91073C9.42496 4.65747 9.69322 4.36431 10.065 4.03126C9.82031 3.71341 9.57556 3.46511 9.33083 3.28596C8.8884 2.96339 8.38716 2.80151 7.82721 2.80151C7.49304 2.80151 7.08594 2.88626 6.60586 3.05507C6.14461 3.22414 5.80811 3.30833 5.59643 3.30833C5.43643 3.30833 5.11168 3.23379 4.62219 3.08475C4.12801 2.93568 3.71162 2.86114 3.37273 2.86114C2.56321 2.86114 1.89489 3.21889 1.36788 3.93451C0.836047 4.65995 0.570129 5.58894 0.570129 6.72167C0.570129 7.92397 0.916048 9.17345 1.60793 10.4704C2.30908 11.7572 3.01739 12.4005 3.73279 12.4005C3.97282 12.4005 4.28332 12.316 4.66455 12.1472C5.04578 11.9832 5.3798 11.9013 5.66691 11.9013C5.97284 11.9013 6.32805 11.9808 6.73293 12.1396C7.16109 12.2986 7.49056 12.378 7.72119 12.378C8.32347 12.378 8.92828 11.8912 9.53542 10.9175C9.93077 10.2965 10.2202 9.6753 10.4038 9.05435C9.98492 8.92034 9.61322 8.6073 9.28847 8.11539Z" fill="white"/>
</svg>
