<svg width="30" height="12" viewBox="0 0 30 12" fill="none" xmlns="http://www.w3.org/2000/svg">
<path d="M4.79408 11.2563C4.14955 11.2563 3.56361 11.1392 3.03627 10.9048C2.51381 10.6655 2.08168 10.3311 1.73988 9.90137C1.39809 9.47168 1.17592 8.96875 1.07338 8.39258H2.9557C3.06801 8.78809 3.29262 9.10059 3.62953 9.33008C3.96644 9.55957 4.36195 9.67432 4.81605 9.67432C5.33363 9.67432 5.77309 9.52295 6.13441 9.22021C6.49574 8.91748 6.77406 8.47803 6.96937 7.90186C7.16469 7.32568 7.26478 6.62988 7.26967 5.81445H7.14516C6.89613 6.31738 6.53236 6.70557 6.05385 6.979C5.57533 7.25244 5.02602 7.38916 4.4059 7.38916C3.90297 7.38916 3.4391 7.30371 3.0143 7.13281C2.58949 6.95703 2.22084 6.71289 1.90834 6.40039C1.59584 6.08301 1.35414 5.71191 1.18324 5.28711C1.01234 4.85742 0.926894 4.38867 0.926894 3.88086C0.926894 3.33887 1.02211 2.84082 1.21254 2.38672C1.40785 1.93262 1.67885 1.54199 2.02553 1.21484C2.37709 0.882813 2.79213 0.626465 3.27064 0.445801C3.74916 0.260254 4.2765 0.16748 4.85268 0.16748C5.48256 0.16748 6.05629 0.287109 6.57387 0.526367C7.09144 0.760742 7.53578 1.10986 7.90687 1.57373C8.28285 2.03271 8.57094 2.59912 8.77113 3.27295C8.97621 3.94678 9.07875 4.7207 9.07875 5.59473C9.07875 6.78125 8.90785 7.79688 8.56605 8.6416C8.22426 9.48633 7.73353 10.1333 7.09389 10.5825C6.45424 11.0317 5.68764 11.2563 4.79408 11.2563ZM4.86 5.89502C5.27016 5.89502 5.63148 5.80713 5.94398 5.63135C6.26137 5.45557 6.50795 5.21631 6.68373 4.91357C6.86439 4.60596 6.95473 4.25439 6.95473 3.85889C6.95473 3.4585 6.86195 3.09961 6.67641 2.78223C6.49574 2.45996 6.24672 2.20605 5.92934 2.02051C5.61684 1.83496 5.26283 1.74219 4.86732 1.74219C4.47182 1.74219 4.11537 1.83496 3.79799 2.02051C3.48549 2.20117 3.23646 2.4502 3.05092 2.76758C2.87025 3.08008 2.77992 3.43164 2.77992 3.82227C2.77992 4.23242 2.86781 4.59375 3.04359 4.90625C3.21937 5.21387 3.46352 5.45557 3.77602 5.63135C4.08852 5.80713 4.44984 5.89502 4.86 5.89502ZM12.2299 11.1538C12.0004 11.1538 11.7977 11.1025 11.622 11C11.4462 10.9023 11.307 10.7656 11.2045 10.5898C11.1068 10.4141 11.058 10.2163 11.058 9.99658C11.058 9.77686 11.1068 9.5791 11.2045 9.40332C11.307 9.22754 11.4462 9.09082 11.622 8.99316C11.7977 8.89062 12.0004 8.83936 12.2299 8.83936C12.4594 8.83936 12.662 8.89062 12.8378 8.99316C13.0184 9.09082 13.1576 9.22754 13.2553 9.40332C13.3529 9.5791 13.4017 9.77686 13.4017 9.99658C13.4017 10.2163 13.3529 10.4141 13.2553 10.5898C13.1576 10.7656 13.0184 10.9023 12.8378 11C12.662 11.1025 12.4594 11.1538 12.2299 11.1538ZM12.2299 5.80713C12.0004 5.80713 11.7977 5.7583 11.622 5.66064C11.4462 5.55811 11.307 5.42139 11.2045 5.25049C11.1068 5.07471 11.058 4.87695 11.058 4.65723C11.058 4.43262 11.1068 4.23486 11.2045 4.06396C11.307 3.88818 11.4462 3.75146 11.622 3.65381C11.7977 3.55127 12.0004 3.5 12.2299 3.5C12.4594 3.5 12.662 3.55127 12.8378 3.65381C13.0184 3.75146 13.1576 3.88818 13.2553 4.06396C13.3529 4.23486 13.4017 4.43262 13.4017 4.65723C13.4017 4.87695 13.3529 5.07471 13.2553 5.25049C13.1576 5.42139 13.0184 5.55811 12.8378 5.66064C12.662 5.7583 12.4594 5.80713 12.2299 5.80713ZM20.3175 11V8.98584H15.1539V7.41113C15.8375 6.21973 16.5455 5.03076 17.278 3.84424C18.0153 2.65771 18.7428 1.52002 19.4606 0.431152H22.1266V7.38916H23.5548V8.98584H22.1266V11H20.3175ZM16.9044 7.33057V7.43311H20.3468V1.96924H20.2443C19.8829 2.51611 19.5094 3.08984 19.1237 3.69043C18.7428 4.29102 18.3619 4.90137 17.9811 5.52148C17.6051 6.13672 17.2462 6.73975 16.9044 7.33057ZM27.6434 11V2.33545H27.5189L24.8895 4.18115V2.36475L27.6507 0.431152H29.5331V11H27.6434Z" fill="white"/>
</svg>
