<svg width="17" height="12" viewBox="0 0 17 12" fill="none" xmlns="http://www.w3.org/2000/svg">
<path fill-rule="evenodd" clip-rule="evenodd" d="M8.38777 2.61504C10.6125 2.61514 12.7522 3.46925 14.3645 5.00084C14.4859 5.11909 14.68 5.1176 14.7996 4.9975L15.9602 3.82717C16.0207 3.76626 16.0545 3.68375 16.054 3.5979C16.0535 3.51205 16.0188 3.42994 15.9575 3.36974C11.7256 -0.682491 5.04927 -0.682491 0.81736 3.36974C0.756058 3.4299 0.721275 3.51198 0.72071 3.59783C0.720145 3.68368 0.753843 3.76621 0.814348 3.82717L1.97529 4.9975C2.0948 5.11778 2.28901 5.11927 2.41036 5.00084C4.02291 3.46915 6.16282 2.61504 8.38777 2.61504ZM8.38777 6.42263C9.61012 6.42255 10.7888 6.87651 11.6949 7.69628C11.8175 7.81262 12.0105 7.8101 12.13 7.6906L13.2892 6.52027C13.3503 6.45888 13.3842 6.3756 13.3833 6.28907C13.3824 6.20253 13.3468 6.11996 13.2846 6.05983C10.5254 3.49542 6.25249 3.49542 3.49333 6.05983C3.431 6.11996 3.39544 6.20257 3.39462 6.28914C3.3938 6.3757 3.4278 6.45897 3.48897 6.52027L4.64791 7.6906C4.76738 7.8101 4.96042 7.81262 5.08297 7.69628C5.98844 6.87705 7.16623 6.42313 8.38777 6.42263ZM10.71 8.98446C10.7118 9.07124 10.6776 9.15491 10.6156 9.2157L8.61032 11.2377C8.55154 11.2971 8.4714 11.3306 8.38777 11.3306C8.30415 11.3306 8.22401 11.2971 8.16522 11.2377L6.15959 9.2157C6.09763 9.15486 6.06354 9.07117 6.06538 8.98439C6.06722 8.89761 6.10481 8.81544 6.16929 8.75727C7.44995 7.675 9.32559 7.675 10.6063 8.75727C10.6707 8.81549 10.7082 8.89769 10.71 8.98446Z" fill="white"/>
</svg>
