<svg width="47" height="13" viewBox="0 0 47 13" fill="none" xmlns="http://www.w3.org/2000/svg">
<path d="M4.44438 12.112C3.66571 12.112 2.96171 11.9787 2.33238 11.712C1.71371 11.4453 1.22304 11.0613 0.860375 10.56C0.497708 10.0587 0.311042 9.46667 0.300375 8.784H2.70038C2.73238 9.24267 2.89238 9.60533 3.18038 9.872C3.47904 10.1387 3.88438 10.272 4.39638 10.272C4.91904 10.272 5.32971 10.1493 5.62838 9.904C5.92704 9.648 6.07638 9.31733 6.07638 8.912C6.07638 8.58133 5.97504 8.30933 5.77238 8.096C5.56971 7.88267 5.31371 7.71733 5.00438 7.6C4.70571 7.472 4.28971 7.33333 3.75638 7.184C3.03104 6.97067 2.43904 6.76267 1.98038 6.56C1.53238 6.34667 1.14304 6.032 0.812375 5.616C0.492375 5.18933 0.332375 4.624 0.332375 3.92C0.332375 3.25867 0.497708 2.68267 0.828375 2.192C1.15904 1.70133 1.62304 1.328 2.22038 1.072C2.81771 0.805333 3.50038 0.672 4.26838 0.672C5.42038 0.672 6.35371 0.954666 7.06838 1.52C7.79371 2.07467 8.19371 2.85333 8.26838 3.856H5.80438C5.78304 3.472 5.61771 3.15733 5.30838 2.912C5.00971 2.656 4.60971 2.528 4.10838 2.528C3.67104 2.528 3.31904 2.64 3.05238 2.864C2.79638 3.088 2.66838 3.41333 2.66838 3.84C2.66838 4.13867 2.76438 4.38933 2.95638 4.592C3.15904 4.784 3.40438 4.944 3.69238 5.072C3.99104 5.18933 4.40704 5.328 4.94038 5.488C5.66571 5.70133 6.25771 5.91467 6.71638 6.128C7.17504 6.34133 7.56971 6.66133 7.90038 7.088C8.23104 7.51467 8.39638 8.07467 8.39638 8.768C8.39638 9.36533 8.24171 9.92 7.93237 10.432C7.62304 10.944 7.16971 11.3547 6.57238 11.664C5.97504 11.9627 5.26571 12.112 4.44438 12.112ZM15.3304 3.008C16.0024 3.008 16.5997 3.15733 17.1224 3.456C17.645 3.744 18.0504 4.176 18.3384 4.752C18.637 5.31733 18.7864 6 18.7864 6.8V12H16.5464V7.104C16.5464 6.4 16.3704 5.86133 16.0184 5.488C15.6664 5.104 15.1864 4.912 14.5784 4.912C13.9597 4.912 13.469 5.104 13.1064 5.488C12.7544 5.86133 12.5784 6.4 12.5784 7.104V12H10.3384V0.16H12.5784V4.24C12.8664 3.856 13.2504 3.55733 13.7304 3.344C14.2104 3.12 14.7437 3.008 15.3304 3.008ZM20.3405 7.536C20.3405 6.64 20.5165 5.84533 20.8685 5.152C21.2312 4.45867 21.7165 3.92533 22.3245 3.552C22.9432 3.17867 23.6312 2.992 24.3885 2.992C25.0498 2.992 25.6258 3.12533 26.1165 3.392C26.6178 3.65867 27.0178 3.99467 27.3165 4.4V3.136H29.5725V12H27.3165V10.704C27.0285 11.12 26.6285 11.4667 26.1165 11.744C25.6152 12.0107 25.0338 12.144 24.3725 12.144C23.6258 12.144 22.9432 11.952 22.3245 11.568C21.7165 11.184 21.2312 10.6453 20.8685 9.952C20.5165 9.248 20.3405 8.44267 20.3405 7.536ZM27.3165 7.568C27.3165 7.024 27.2098 6.56 26.9965 6.176C26.7832 5.78133 26.4952 5.48267 26.1325 5.28C25.7698 5.06667 25.3805 4.96 24.9645 4.96C24.5485 4.96 24.1645 5.06133 23.8125 5.264C23.4605 5.46667 23.1725 5.76533 22.9485 6.16C22.7352 6.544 22.6285 7.00267 22.6285 7.536C22.6285 8.06933 22.7352 8.53867 22.9485 8.944C23.1725 9.33867 23.4605 9.64267 23.8125 9.856C24.1752 10.0693 24.5592 10.176 24.9645 10.176C25.3805 10.176 25.7698 10.0747 26.1325 9.872C26.4952 9.65867 26.7832 9.36 26.9965 8.976C27.2098 8.58133 27.3165 8.112 27.3165 7.568ZM34.0003 4.512C34.2883 4.04267 34.6616 3.67467 35.1203 3.408C35.5896 3.14133 36.1229 3.008 36.7203 3.008V5.36H36.1283C35.4243 5.36 34.8909 5.52533 34.5283 5.856C34.1763 6.18667 34.0003 6.76267 34.0003 7.584V12H31.7603V3.136H34.0003V4.512ZM46.469 7.376C46.469 7.696 46.4477 7.984 46.405 8.24H39.925C39.9783 8.88 40.2023 9.38133 40.597 9.744C40.9917 10.1067 41.477 10.288 42.053 10.288C42.885 10.288 43.477 9.93067 43.829 9.216H46.245C45.989 10.0693 45.4983 10.7733 44.773 11.328C44.0477 11.872 43.157 12.144 42.101 12.144C41.2477 12.144 40.4797 11.9573 39.797 11.584C39.125 11.2 38.597 10.6613 38.213 9.968C37.8397 9.27467 37.653 8.47467 37.653 7.568C37.653 6.65067 37.8397 5.84533 38.213 5.152C38.5863 4.45867 39.109 3.92533 39.781 3.552C40.453 3.17867 41.2263 2.992 42.101 2.992C42.9437 2.992 43.6957 3.17333 44.357 3.536C45.029 3.89867 45.5463 4.416 45.909 5.088C46.2823 5.74933 46.469 6.512 46.469 7.376ZM44.149 6.736C44.1383 6.16 43.9303 5.70133 43.525 5.36C43.1197 5.008 42.6237 4.832 42.037 4.832C41.4823 4.832 41.013 5.00267 40.629 5.344C40.2557 5.67467 40.0263 6.13867 39.941 6.736H44.149Z" fill="black"/>
</svg>
